<svg class="railroad-diagram" width="813.5" height="157" viewBox="0 0 813.5 157">
    <g transform="translate(.5 .5)">
        <g>
            <path d="M20 21v20m10 -20v20m-10 -10h20"/>
        </g>
        <g>
            <path d="M40 31h0"/>
            <path d="M773.5 127h0"/>
            <path d="M40 31h20"/>
            <g>
                <path d="M60 31h0"/>
                <path d="M60 31h10"/>
                <g class="terminal">
                    <path d="M70 31h258.75"/>
                    <path d="M484.75 31h258.75"/>
                    <rect x="328.75" y="20" width="156" height="22" rx="10" ry="10"/>
                    <text x="406.75" y="35">BASIC&#95;DRILL&#95;NAME</text>
                </g>
                <path d="M743.5 31a10 10 0 0 1 10 10v0a10 10 0 0 1 -10 10h-673.5a10 10 0 0 0 -10 10v8a10 10 0 0 0 10 10"/>
                <g>
                    <path d="M70 79h0"/>
                    <path d="M743.5 79h0"/>
                    <path d="M70 79a10 10 0 0 0 10 -10v0a10 10 0 0 1 10 -10"/>
                    <g>
                        <path d="M90 59h633.5"/>
                    </g>
                    <path d="M723.5 59a10 10 0 0 1 10 10v0a10 10 0 0 0 10 10"/>
                    <path d="M70 79h20"/>
                    <g>
                        <path d="M90 79h0"/>
                        <path d="M723.5 79h0"/>
                        <path d="M90 79h20"/>
                        <g>
                            <path d="M110 79h0"/>
                            <path d="M703.5 79h0"/>
                            <g class="non-terminal">
                                <path d="M110 79h0"/>
                                <path d="M240.5 79h0"/>
                                <rect x="110" y="68" width="130.5" height="22"/>
                                <text x="175.25" y="83">basicLinValue</text>
                            </g>
                            <path d="M240.5 79h10"/>
                            <path d="M250.5 79h10"/>
                            <g>
                                <path d="M260.5 79h0"/>
                                <path d="M703.5 79h0"/>
                                <path d="M260.5 79h10"/>
                                <g>
                                    <path d="M270.5 79h0"/>
                                    <path d="M693.5 79h0"/>
                                    <path d="M270.5 79h20"/>
                                    <g>
                                        <path d="M290.5 79h0"/>
                                        <path d="M673.5 79h0"/>
                                        <g class="terminal">
                                            <path d="M290.5 79h0"/>
                                            <path d="M523 79h0"/>
                                            <rect x="290.5" y="68" width="232.5" height="22" rx="10" ry="10"/>
                                            <text x="406.75" y="83">BASIC&#95;LIN&#95;VALUE&#95;SEPARATOR</text>
                                        </g>
                                        <path d="M523 79h10"/>
                                        <path d="M533 79h10"/>
                                        <g class="non-terminal">
                                            <path d="M543 79h0"/>
                                            <path d="M673.5 79h0"/>
                                            <rect x="543" y="68" width="130.5" height="22"/>
                                            <text x="608.25" y="83">basicLinValue</text>
                                        </g>
                                    </g>
                                    <path d="M673.5 79h20"/>
                                </g>
                                <path d="M693.5 79h10"/>
                                <path d="M270.5 79a10 10 0 0 0 -10 10v0a10 10 0 0 0 10 10"/>
                                <g>
                                    <path d="M270.5 99h423"/>
                                </g>
                                <path d="M693.5 99a10 10 0 0 0 10 -10v0a10 10 0 0 0 -10 -10"/>
                            </g>
                        </g>
                        <path d="M703.5 79h20"/>
                    </g>
                    <path d="M723.5 79h20"/>
                </g>
                <path d="M743.5 79a10 10 0 0 1 10 10v8a10 10 0 0 1 -10 10h-673.5a10 10 0 0 0 -10 10v0a10 10 0 0 0 10 10"/>
                <g class="non-terminal">
                    <path d="M70 127h263"/>
                    <path d="M480.5 127h263"/>
                    <rect x="333" y="116" width="147.5" height="22"/>
                    <text x="406.75" y="131">basicLinLineEnd</text>
                </g>
                <path d="M743.5 127h10"/>
                <path d="M753.5 127h0"/>
            </g>
            <path d="M753.5 127h20"/>
        </g>
        <path d="M 773.5 127 h 20 m -10 -10 v 20 m 10 -20 v 20"/>
    </g>
</svg>
