<svg class="railroad-diagram" width="580" height="345" viewBox="0 0 580 345">
    <g transform="translate(.5 .5)">
        <g>
            <path d="M20 21v20m10 -20v20m-10 -10h20"/>
        </g>
        <path d="M40 31h10"/>
        <g>
            <path d="M50 31h0"/>
            <path d="M50 31h10"/>
            <g>
                <path d="M60 31h163.25"/>
                <path d="M356.75 31h163.25"/>
                <path d="M223.25 31h10"/>
                <g>
                    <path d="M233.25 31h0"/>
                    <path d="M346.75 31h0"/>
                    <g>
                        <path d="M233.25 31h0"/>
                        <path d="M264.25 31h0"/>
                        <text x="248.75" y="36" class="comment">not</text>
                    </g>
                    <path d="M264.25 31h10"/>
                    <path d="M274.25 31h10"/>
                    <g class="terminal">
                        <path d="M284.25 31h0"/>
                        <path d="M346.75 31h0"/>
                        <rect x="284.25" y="20" width="62.5" height="22" rx="10" ry="10"/>
                        <text x="315.5" y="35">&#91;\n|&#93;</text>
                    </g>
                </g>
                <path d="M346.75 31h10"/>
                <path d="M233.25 31a10 10 0 0 0 -10 10v0a10 10 0 0 0 10 10"/>
                <g>
                    <path d="M233.25 51h113.5"/>
                </g>
                <path d="M346.75 51a10 10 0 0 0 10 -10v0a10 10 0 0 0 -10 -10"/>
            </g>
            <path d="M520 31a10 10 0 0 1 10 10v8a10 10 0 0 1 -10 10h-460a10 10 0 0 0 -10 10v0a10 10 0 0 0 10 10"/>
            <g>
                <path d="M60 79h113"/>
                <path d="M407 79h113"/>
                <text x="290" y="84" class="comment">match() in hopesPeakGame.opCodes</text>
            </g>
            <path d="M520 79a10 10 0 0 1 10 10v0a10 10 0 0 1 -10 10h-460a10 10 0 0 0 -10 10v0a10 10 0 0 0 10 10"/>
            <g class="terminal">
                <path d="M60 119h215.75"/>
                <path d="M304.25 119h215.75"/>
                <rect x="275.75" y="108" width="28.5" height="22" rx="10" ry="10"/>
                <text x="290" y="123">|</text>
            </g>
            <path d="M520 119a10 10 0 0 1 10 10v0a10 10 0 0 1 -10 10h-460a10 10 0 0 0 -10 10v8a10 10 0 0 0 10 10"/>
            <g>
                <path d="M60 167h0"/>
                <path d="M520 167h0"/>
                <path d="M60 167a10 10 0 0 0 10 -10v0a10 10 0 0 1 10 -10"/>
                <g>
                    <path d="M80 147h420"/>
                </g>
                <path d="M500 147a10 10 0 0 1 10 10v0a10 10 0 0 0 10 10"/>
                <path d="M60 167h20"/>
                <g>
                    <path d="M80 167h0"/>
                    <path d="M500 167h0"/>
                    <path d="M80 167h20"/>
                    <g>
                        <path d="M100 167h148.75"/>
                        <path d="M331.25 167h148.75"/>
                        <path d="M248.75 167h10"/>
                        <g class="terminal">
                            <path d="M258.75 167h0"/>
                            <path d="M321.25 167h0"/>
                            <rect x="258.75" y="156" width="62.5" height="22" rx="10" ry="10"/>
                            <text x="290" y="171">&#91;0-9&#93;</text>
                        </g>
                        <path d="M321.25 167h10"/>
                        <path d="M258.75 167a10 10 0 0 0 -10 10v0a10 10 0 0 0 10 10"/>
                        <g>
                            <path d="M258.75 187h62.5"/>
                        </g>
                        <path d="M321.25 187a10 10 0 0 0 10 -10v0a10 10 0 0 0 -10 -10"/>
                    </g>
                    <path d="M480 167h20"/>
                    <path d="M80 167a10 10 0 0 1 10 10v19a10 10 0 0 0 10 10"/>
                    <g class="terminal">
                        <path d="M100 206h158.75"/>
                        <path d="M321.25 206h158.75"/>
                        <rect x="258.75" y="195" width="62.5" height="22" rx="10" ry="10"/>
                        <text x="290" y="210">%GAME</text>
                    </g>
                    <path d="M480 206a10 10 0 0 0 10 -10v-19a10 10 0 0 1 10 -10"/>
                    <path d="M80 167a10 10 0 0 1 10 10v49a10 10 0 0 0 10 10"/>
                    <g class="terminal">
                        <path d="M100 236h129"/>
                        <path d="M351 236h129"/>
                        <rect x="229" y="225" width="122" height="22" rx="10" ry="10"/>
                        <text x="290" y="240">%ENVIRONMENT</text>
                    </g>
                    <path d="M480 236a10 10 0 0 0 10 -10v-49a10 10 0 0 1 10 -10"/>
                    <path d="M80 167a10 10 0 0 1 10 10v79a10 10 0 0 0 10 10"/>
                    <g>
                        <path d="M100 266h0"/>
                        <path d="M480 266h0"/>
                        <g class="terminal">
                            <path d="M100 266h0"/>
                            <path d="M128.5 266h0"/>
                            <rect x="100" y="255" width="28.5" height="22" rx="10" ry="10"/>
                            <text x="114.25" y="270">"</text>
                        </g>
                        <path d="M128.5 266h10"/>
                        <path d="M138.5 266h10"/>
                        <g class="terminal">
                            <path d="M148.5 266h0"/>
                            <path d="M177 266h0"/>
                            <rect x="148.5" y="255" width="28.5" height="22" rx="10" ry="10"/>
                            <text x="162.75" y="270">%</text>
                        </g>
                        <path d="M177 266h10"/>
                        <path d="M187 266h10"/>
                        <g>
                            <path d="M197 266h0"/>
                            <path d="M296.5 266h0"/>
                            <path d="M197 266h10"/>
                            <g>
                                <path d="M207 266h0"/>
                                <path d="M286.5 266h0"/>
                                <g>
                                    <path d="M207 266h0"/>
                                    <path d="M238 266h0"/>
                                    <text x="222.5" y="271" class="comment">not</text>
                                </g>
                                <path d="M238 266h10"/>
                                <path d="M248 266h10"/>
                                <g class="terminal">
                                    <path d="M258 266h0"/>
                                    <path d="M286.5 266h0"/>
                                    <rect x="258" y="255" width="28.5" height="22" rx="10" ry="10"/>
                                    <text x="272.25" y="270">"</text>
                                </g>
                            </g>
                            <path d="M286.5 266h10"/>
                            <path d="M207 266a10 10 0 0 0 -10 10v0a10 10 0 0 0 10 10"/>
                            <g>
                                <path d="M207 286h79.5"/>
                            </g>
                            <path d="M286.5 286a10 10 0 0 0 10 -10v0a10 10 0 0 0 -10 -10"/>
                        </g>
                        <path d="M296.5 266h10"/>
                        <path d="M306.5 266h10"/>
                        <g class="terminal">
                            <path d="M316.5 266h0"/>
                            <path d="M345 266h0"/>
                            <rect x="316.5" y="255" width="28.5" height="22" rx="10" ry="10"/>
                            <text x="330.75" y="270">"</text>
                        </g>
                        <path d="M345 266h10"/>
                        <path d="M355 266h10"/>
                        <g>
                            <path d="M365 266h0"/>
                            <path d="M480 266h0"/>
                            <text x="422.5" y="271" class="comment">match() in data</text>
                        </g>
                    </g>
                    <path d="M480 266a10 10 0 0 0 10 -10v-79a10 10 0 0 1 10 -10"/>
                    <path d="M80 167a10 10 0 0 1 10 10v118a10 10 0 0 0 10 10"/>
                    <g>
                        <path d="M100 305h99"/>
                        <path d="M381 305h99"/>
                        <g class="terminal">
                            <path d="M199 305h0"/>
                            <path d="M227.5 305h0"/>
                            <rect x="199" y="294" width="28.5" height="22" rx="10" ry="10"/>
                            <text x="213.25" y="309">%</text>
                        </g>
                        <path d="M227.5 305h10"/>
                        <path d="M237.5 305h10"/>
                        <g>
                            <path d="M247.5 305h0"/>
                            <path d="M381 305h0"/>
                            <path d="M247.5 305h10"/>
                            <g>
                                <path d="M257.5 305h0"/>
                                <path d="M371 305h0"/>
                                <g>
                                    <path d="M257.5 305h0"/>
                                    <path d="M288.5 305h0"/>
                                    <text x="273" y="310" class="comment">not</text>
                                </g>
                                <path d="M288.5 305h10"/>
                                <path d="M298.5 305h10"/>
                                <g class="terminal">
                                    <path d="M308.5 305h0"/>
                                    <path d="M371 305h0"/>
                                    <rect x="308.5" y="294" width="62.5" height="22" rx="10" ry="10"/>
                                    <text x="339.75" y="309">&#91;,|)&#93;</text>
                                </g>
                            </g>
                            <path d="M371 305h10"/>
                            <path d="M257.5 305a10 10 0 0 0 -10 10v0a10 10 0 0 0 10 10"/>
                            <g>
                                <path d="M257.5 325h113.5"/>
                            </g>
                            <path d="M371 325a10 10 0 0 0 10 -10v0a10 10 0 0 0 -10 -10"/>
                        </g>
                    </g>
                    <path d="M480 305a10 10 0 0 0 10 -10v-118a10 10 0 0 1 10 -10"/>
                </g>
                <path d="M500 167h20"/>
            </g>
            <path d="M520 167h10"/>
            <path d="M530 167h0"/>
        </g>
        <path d="M530 167h10"/>
        <path d="M 540 167 h 20 m -10 -10 v 20 m 10 -20 v 20"/>
    </g>
</svg>